<svg height="512pt" viewBox="-46 0 512 512" width="512pt" xmlns="http://www.w3.org/2000/svg"><path d="m55.839844 399.40625c-3.019532-4.726562-9.929688-4.726562-12.949219 0l-26.769531 41.914062c-9.964844 15.605469-7.738282 36.035157 5.351562 49.125 15.40625 15.40625 40.378906 15.40625 55.785156 0 13.089844-13.089843 15.316407-33.519531 5.351563-49.125zm0 0" fill="#00bdf2"/><path d="m207.886719 290.558594 19.253906-19.253906zm0 0" fill="#e4e5e8"/><path d="m178.847656 161.785156 85.074219-85.074218 78.90625 78.90625-85.074219 85.074218zm0 0" fill="#e4e5e8"/><path d="m286.445312 43.953125c-7.632812-7.628906-20.003906-7.628906-27.636718 0-7.632813 7.632813-7.632813 20.007813 0 27.640625l89.140625 89.140625c7.632812 7.632813 20.007812 7.632813 27.636719 0 7.632812-7.632813 7.632812-20.003906 0-27.636719zm0 0" fill="#ffcc5a"/><path d="m393.199219 26.34375c-21.789063-21.789062-57.117188-21.789062-78.90625 0l-22.730469 22.730469 78.90625 78.902343 22.730469-22.730468c21.789062-21.789063 21.789062-57.113282 0-78.902344zm0 0" fill="#fbb868"/><path d="m93.777344 246.859375-18.15625 18.15625c-3.859375 3.859375-5.402344 9.46875-4.0625 14.761719l4.640625 18.292968c2.511719 9.902344-.378907 20.398438-7.601563 27.621094l-10.796875 10.796875c-6.972656 6.972657-6.972656 18.277344 0 25.25 6.976563 6.972657 18.28125 6.972657 25.253907 0l10.792968-10.796875c7.226563-7.222656 17.71875-10.109375 27.621094-7.597656l18.292969 4.636719c5.292969 1.34375 10.902343-.199219 14.765625-4.0625l18.152344-18.152344zm0 0" fill="#6e528e"/><path d="m136.605469 204.03125-42.828125 42.828125 78.902344 78.90625 35.207031-35.207031 7.625-7.621094zm0 0" fill="#9c74b7"/><path d="m136.605469 204.03125 78.90625 78.90625 11.628906-11.632812 30.613281-30.613282-78.902344-78.90625zm0 0" fill="#0097d5"/><path d="m91.035156 435.9375-26.769531-41.910156c-3.265625-5.113282-8.835937-8.167969-14.902344-8.167969-6.066406 0-11.636719 3.054687-14.902343 8.164063l-26.765626 41.914062c-12.394531 19.402344-9.574218 45.300781 6.707032 61.578125 9.339844 9.339844 21.753906 14.484375 34.960937 14.484375 13.210938 0 25.625-5.144531 34.964844-14.480469 16.28125-16.28125 19.101563-42.175781 6.707031-61.582031zm-20.847656 47.4375c-5.5625 5.5625-12.957031 8.625-20.824219 8.625-7.863281 0-15.257812-3.0625-20.820312-8.625-9.695313-9.695312-11.375-25.117188-3.996094-36.671875l24.816406-38.855469 24.816407 38.855469c7.378906 11.554687 5.699218 26.976563-3.992188 36.671875zm0 0"/><path d="m419.542969 65.792969c0-17.574219-6.84375-34.097657-19.273438-46.523438-12.425781-12.425781-28.949219-19.269531-46.523437-19.269531-17.574219 0-34.09375 6.84375-46.523438 19.269531l-15.75 15.753907c-11.59375-9.621094-28.875-9-39.734375 1.859374-5.582031 5.582032-8.652343 13-8.652343 20.890626 0 6.964843 2.394531 13.558593 6.789062 18.847656l-163.171875 163.167968-18.152344 18.152344c-6.320312 6.320313-8.882812 15.628906-6.683593 24.296875l4.636718 18.289063c1.636719 6.453125-.269531 13.386718-4.976562 18.09375l-10.796875 10.796875c-5.261719 5.261719-8.15625 12.253906-8.15625 19.695312 0 7.441407 2.894531 14.4375 8.15625 19.695313 5.261719 5.261718 12.257812 8.160156 19.699219 8.160156 7.4375 0 14.433593-2.898438 19.695312-8.160156l10.792969-10.792969c4.707031-4.707031 11.640625-6.613281 18.09375-4.980469l18.292969 4.640625c8.667968 2.191407 17.976562-.367187 24.292968-6.6875l18.136719-18.132812c.003906-.007813.011719-.011719.019531-.019531l163.167969-163.167969c5.289063 4.394531 11.882813 6.789062 18.847656 6.789062 7.890625 0 15.308594-3.074219 20.890625-8.652343 5.578125-5.582032 8.652344-13 8.652344-20.890626 0-6.964843-2.394531-13.558593-6.789062-18.847656l15.75-15.75c12.425781-12.425781 19.269531-28.949218 19.269531-46.523437zm-204.03125 203-64.761719-64.761719 28.101562-28.105469 64.761719 64.765625zm-78.90625-50.621094 64.761719 64.761719-28.6875 28.6875-64.761719-64.761719zm5.613281 120.117187-18.292969-4.640624c-13.25-3.359376-27.484375.558593-37.148437 10.222656l-10.796875 10.796875c-3.0625 3.0625-8.046875 3.0625-11.105469 0-1.484375-1.484375-2.300781-3.457031-2.300781-5.554688 0-2.097656.816406-4.070312 2.300781-5.554687l10.792969-10.792969c9.667969-9.667969 13.582031-23.902344 10.222656-37.152344l-4.636719-18.292969c-.472656-1.867187.078125-3.871093 1.441406-5.234374l11.082032-11.082032 64.761718 64.761719-11.082031 11.082031c-1.363281 1.363282-3.371093 1.914063-5.238281 1.441406zm226.296875-184.628906c-3.722656 3.722656-9.773437 3.722656-13.496094 0l-22.601562-22.601562c-3.90625-3.902344-10.234375-3.902344-14.140625 0-3.90625 3.90625-3.90625 10.238281 0 14.144531l10.410156 10.410156-70.933594 70.933594-64.761718-64.761719 70.933593-70.933594 1.226563 1.226563c3.902344 3.902344 10.234375 3.902344 14.140625 0 3.90625-3.90625 3.90625-10.238281 0-14.144531l-13.414063-13.414063c-3.722656-3.71875-3.722656-9.773437 0-13.496093 3.71875-3.71875 9.773438-3.71875 13.496094 0l5.082031 5.085937c.011719.011719.023438.023437.035157.035156l78.902343 78.90625h.003907l5.117187 5.117188c3.722656 3.722656 3.722656 9.773437 0 13.492187zm17.613281-55.484375-15.660156 15.660157-64.761719-64.761719 15.660157-15.660157c8.648437-8.648437 20.148437-13.414062 32.378906-13.414062 12.234375 0 23.734375 4.765625 32.382812 13.414062 8.648438 8.648438 13.414063 20.148438 13.414063 32.378907 0 12.234375-4.765625 23.730469-13.414063 32.382812zm0 0"/><path d="m299.804688 102.589844c-5.523438 0-10 4.476562-10 10 0 5.519531 4.476562 10 10 10h.023437c5.523437 0 9.988281-4.480469 9.988281-10 0-5.523438-4.488281-10-10.011718-10zm0 0"/></svg>