<svg id="filled_outline" height="512" viewBox="0 0 512 512" width="512" xmlns="http://www.w3.org/2000/svg" data-name="filled outline"><path d="m424 304-30.059 184h-273.941l-32-184z" fill="#eda600"/><path d="m88 304v-64h128l16-32h48l16 32h128v64z" fill="#f6bb00"/><path d="m120 24h104v96h-104z" fill="#e5e7e9"/><path d="m208 120v48a24.002 24.002 0 0 1 -24 24v16a31.98308 31.98308 0 0 1 -32 32v24a16 16 0 0 1 -32 0v-144z" fill="#639aff"/><path d="m264 120a81.94105 81.94105 0 0 1 57.94107-24h57.21453a53.8962 53.8962 0 0 0 44.8444-24 53.8962 53.8962 0 0 0 -44.84436-24h-57.21455a81.94105 81.94105 0 0 1 -57.94109-24z" fill="#b1792c"/><path d="m224 24h40v96h-40z" fill="#f6bb00"/><circle cx="384" cy="72" r="8"/><path d="m192 198.9873a32.05589 32.05589 0 0 0 24-30.9873v-40h48a8.00035 8.00035 0 0 0 5.65674-2.34277 73.45746 73.45746 0 0 1 52.28418-21.65723h57.21484a61.77185 61.77185 0 0 0 51.50049-27.5625 7.99953 7.99953 0 0 0 0-8.875 61.77185 61.77185 0 0 0 -51.50049-27.5625h-57.21484a73.45746 73.45746 0 0 1 -52.28418-21.65723 8.00035 8.00035 0 0 0 -5.65674-2.34277h-144a8.00008 8.00008 0 0 0 -8 8v208h-24a8.00008 8.00008 0 0 0 -8 8v64a8.02366 8.02366 0 0 0 .11816 1.37109l16.45722 94.62891h-32.57538a8 8 0 0 0 0 16h35.358l12.76019 73.37109a8.00052 8.00052 0 0 0 7.88181 6.62891h273.94092a8.00021 8.00021 0 0 0 7.89551-6.71l30.05908-184a8.04745 8.04745 0 0 0 .10449-1.29v-64a8.00008 8.00008 0 0 0 -8-8h-123.05566l-13.78907-27.57812a7.99967 7.99967 0 0 0 -7.15527-4.42188h-48a7.99967 7.99967 0 0 0 -7.15527 4.42188l-13.78907 27.57812h-27.079a39.78814 39.78814 0 0 0 8.02334-24zm64-86.9873h-24v-80h24zm123.15576-56a45.78944 45.78944 0 0 1 34.82715 16 45.78944 45.78944 0 0 1 -34.82715 16h-57.21484a89.2934 89.2934 0 0 0 -49.94092 15.13452v-62.269a89.2934 89.2934 0 0 0 49.94092 15.13448zm-163.15576-24v80h-88v-16h72v-16h-72v-16h72v-16h-72v-16zm-118.48859 280h150.15247a96.12654 96.12654 0 0 1 -95.66388 88h-39.18414zm289.63019 168h-260.4126l-11.13049-64h36.40149a112.14428 112.14428 0 0 0 111.71124-104h150.87576zm-171.1416-232a7.99967 7.99967 0 0 0 7.15527-4.42188l13.78907-27.57812h38.11132l13.78907 27.57812a7.99967 7.99967 0 0 0 7.15527 4.42188h120v48h-152v-56a8 8 0 0 0 -16 0v56h-152v-48h16v16a24 24 0 0 0 48 0v-16zm-40-56v16a24.03824 24.03824 0 0 1 -16 22.62378v-46.62378h-16v80a8 8 0 0 1 -16 0v-136h72v40a16.01833 16.01833 0 0 1 -16 16 8.00008 8.00008 0 0 0 -8 8z"/><path d="m144 144h16v16h-16z"/></svg>