<svg xmlns="http://www.w3.org/2000/svg" viewBox="0 0 64 64" width="20px" height="20px"><path fill="#c2cde7" d="M24.5,4.8l29.7,29.7l0,0L33,55.8c-2.3,2.3-6.1,2.3-8.5,0L3.3,34.5c-2.3-2.3-2.3-6.1,0-8.5L24.5,4.8 C24.5,4.8,24.5,4.8,24.5,4.8z"/><path fill="#c2cde7" d="M46.3 26.7L20.9 52.2 8.9 40.2 34.4 14.8z"/><path fill="#ced8ed" d="M34.4,14.8L8.9,40.2l-5.7-5.7c-2.4-2.3-2.4-6.1-0.1-8.5c0,0,0,0,0.1-0.1L24.5,4.8L34.4,14.8z"/><path fill="#b5c4e0" d="M54.2,34.5L33,55.8c-2.3,2.3-6.1,2.3-8.5,0c0,0,0,0,0,0l-3.6-3.6l25.4-25.5L54.2,34.5z"/><path fill="#b5c4e0" d="M3.2,26L3.2,26c-2.3,2.3-2.3,6.1,0,8.5c0,0,0,0,0,0l21.2,21.2c2.3,2.3,6.1,2.3,8.5,0c0,0,0,0,0,0l0.9-0.9 L5.5,26.4C4.9,25.9,4,25.7,3.2,26z"/><path fill="#f9e3ae" d="M27.3,2L57,31.7c0.8,0.8,0.8,2,0,2.8l0,0c-0.8,0.8-2,0.8-2.8,0L24.5,4.8c-0.8-0.8-0.8-2,0-2.8l0,0 C25.2,1.2,26.5,1.2,27.3,2z"/><path fill="#f283a5" d="M48,54.6c0,3.8,3.1,6.9,6.9,7c3.1,0,5.9-2.1,6.8-5.1c1.8-5.7-5.2-9.9-6.5-16.4c0-0.1-0.1-0.1-0.2-0.1 c-0.1,0-0.1,0.1-0.1,0.1C53.6,45.8,48,49.8,48,54.6z"/><path fill="#ed7899" d="M34 21A4 4 0 1 0 34 29A4 4 0 1 0 34 21Z"/><path fill="#8d6c9f" d="M8.2 28.2l-1.4 1.4c-.4.4-.5 1-.1 1.4.4.4 1 .5 1.4.1 0 0 .1-.1.1-.1l1.4-1.4c.4-.4.4-1 0-1.4C9.2 27.8 8.6 27.8 8.2 28.2zM18.8 38.8l-1.4 1.4c-.4.4-.5 1-.1 1.4.4.4 1 .5 1.4.1 0 0 .1-.1.1-.1l1.4-1.4c.4-.4.3-1.1-.1-1.4C19.7 38.5 19.2 38.5 18.8 38.8zM22.3 42.3l-1.4 1.4c-.4.4-.5 1-.1 1.4.4.4 1 .5 1.4.1 0 0 .1-.1.1-.1l1.4-1.4c.4-.4.3-1.1-.1-1.4C23.3 42 22.7 42 22.3 42.3zM25.9 45.8l-1.4 1.4c-.4.4-.5 1-.1 1.4.4.4 1 .5 1.4.1 0 0 .1-.1.1-.1l1.4-1.4c.4-.4.3-1.1-.1-1.4C26.8 45.5 26.3 45.5 25.9 45.8zM29.4 49.4L28 50.8c-.4.4-.5 1-.1 1.4.4.4 1 .5 1.4.1 0 0 .1-.1.1-.1l1.4-1.4c.4-.4.3-1.1-.1-1.4C30.3 49.1 29.8 49.1 29.4 49.4L29.4 49.4zM11.7 31.7l-1.4 1.4c-.4.4-.5 1-.1 1.4s1 .5 1.4.1c0 0 .1-.1.1-.1l1.4-1.4c.4-.4.3-1.1-.1-1.4C12.7 31.4 12.1 31.4 11.7 31.7L11.7 31.7zM15.3 35.2l-1.4 1.4c-.4.4-.4 1 0 1.4.4.4 1 .4 1.4 0l1.4-1.4c.4-.4.4-1 0-1.4C16.3 34.8 15.7 34.8 15.3 35.2z"/><path fill="#8d6c9f" d="M57.7 31L28 1.3c-1.2-1.2-3.1-1.1-4.2.1-.9.9-1.1 2.2-.6 3.3l-.1.1c-.1 0-.1 0-.2 0C11.9 6.5 5 10.4 5 15c0 1.8 1.1 3.5 3 4.9l-5.5 5.4c-2.7 2.7-2.7 7.2 0 9.9 0 0 0 0 0 0l21.2 21.2c2.7 2.7 7.2 2.7 9.9 0 0 0 0 0 0 0l20.6-20.6c1.5.7 3.3.1 4-1.4C58.8 33.2 58.6 31.9 57.7 31zM7 15c0-3.1 5.5-6.1 13.6-7.8L9.3 18.6C7.8 17.5 7 16.3 7 15zM34.4 52.9L34.4 52.9c-.4-.4-1-.4-1.4 0l-1.4 1.4c-.4.4-.4.9-.1 1.3-2 1.3-4.6 1-6.3-.7L4 33.8c-1.7-1.7-2-4.2-.7-6.2.4.4 1 .4 1.4 0l1.4-1.4c.4-.4.4-1 0-1.4L6 24.7l3.6-3.6c4.3 2.5 11.2 4.3 19.4 4.8.5 2.7 3 4.6 5.8 4.1 2.7-.5 4.6-3 4.1-5.8-.5-2.7-3-4.6-5.8-4.1-2 .3-3.6 1.8-4 3.8-7-.5-13.9-2-18.1-4.2L24.5 6.2l28.3 28.3L34.4 52.9zM34 24c-.9 0-1.9 0-2.8-.1.6-1.6 2.3-2.4 3.8-1.8 1.6.6 2.4 2.3 1.8 3.8-.6 1.6-2.3 2.4-3.8 1.8-.9-.3-1.5-1-1.8-1.8.9 0 1.9 0 2.8 0 .6 0 1-.4 1-1S34.6 24 34 24L34 24zM56.3 33.8c-.4.4-1 .4-1.4 0L25.2 4.1c-.4-.4-.3-1.1.1-1.4.4-.3.9-.3 1.3 0l29.7 29.7C56.7 32.8 56.7 33.4 56.3 33.8zM59.6 46.8c-1.5-2.1-3-4.4-3.5-6.9C56 39.4 55.5 39 55 39l0 0c-.5 0-1 .4-1.1.9-.5 2.5-2 4.7-3.5 6.9-1.7 2.6-3.4 5-3.4 7.8 0 4.4 3.5 7.9 7.8 8H55c3.5 0 6.6-2.4 7.7-5.8C63.8 53 61.7 49.9 59.6 46.8zM60.7 56.2c-1 3.2-4.3 4.9-7.5 4-2.5-.8-4.2-3-4.2-5.6 0-2.2 1.5-4.4 3-6.7 1.2-1.6 2.2-3.2 3-5 .8 1.8 1.8 3.4 3 5C59.9 50.8 61.6 53.3 60.7 56.2z"/></svg>