<svg xmlns="http://www.w3.org/2000/svg" viewBox="0 0 100 100" width="20px" height="20px"><rect width="47.376" height="18.385" x="25.562" y="41.558" fill="#52bfa1" transform="rotate(-45.001 49.25 50.75)"/><polygon fill="#fefdef" points="18,81 19,82 39,74 26,61"/><polygon fill="#1f212b" points="20.857,73.857 18,81 19,82 26.143,79.143"/><path fill="#f37e98" d="M78.355,21.645L78.355,21.645c-3.591-3.591-8.284-4.721-10.483-2.523L67,20l-7.5,7.5l13,13L80,33	l0.878-0.872C83.076,29.93,81.946,25.236,78.355,21.645z"/><rect width="8.278" height="18.385" x="64.788" y="21.881" fill="#7a91c9" transform="rotate(-45.001 68.927 31.074)"/><path fill="#1f212b" d="M19,83c-0.26,0-0.516-0.102-0.707-0.293l-1-1c-0.283-0.283-0.37-0.707-0.222-1.079l8-20	c0.051-0.125,0.126-0.24,0.222-0.335l41.87-41.875c1.32-1.319,3.329-1.738,5.662-1.177c2.156,0.519,4.371,1.833,6.236,3.698l0,0l0,0	c1.865,1.865,3.179,4.08,3.698,6.237c0.562,2.331,0.144,4.341-1.175,5.66l-0.88,0.875L39.707,74.707	c-0.096,0.096-0.21,0.171-0.336,0.222l-20,8C19.251,82.977,19.125,83,19,83z M19.174,80.759l0.067,0.067l19.197-7.679l41.734-41.73	c0.806-0.805,1.034-2.146,0.643-3.775c-0.435-1.804-1.56-3.683-3.168-5.291l0,0c-1.608-1.608-3.487-2.733-5.29-3.167	c-1.628-0.391-2.971-0.163-3.778,0.645l-0.87,0.875L26.853,61.562L19.174,80.759z"/><rect width="2" height="18.385" x="65" y="24.808" fill="#1f212b" transform="rotate(-45.001 66 34)"/><rect width="2" height="18.385" x="31.5" y="58.308" fill="#1f212b" transform="rotate(-45.001 32.5 67.5)"/><rect width="1" height="7.159" x="23.031" y="72.952" fill="#1f212b" transform="rotate(-45.001 23.53 76.532)"/><path fill="#1f212b" d="M31.044,66.509c-0.128,0-0.256-0.049-0.354-0.146c-0.195-0.195-0.195-0.512,0-0.707l33.456-33.456	c0.195-0.195,0.512-0.195,0.707,0s0.195,0.512,0,0.707L31.397,66.362C31.3,66.46,31.172,66.509,31.044,66.509z"/><path fill="#1f212b" d="M34.018,69.482c-0.128,0-0.256-0.049-0.354-0.146c-0.195-0.195-0.195-0.512,0-0.707l28.482-28.482	c0.195-0.195,0.512-0.195,0.707,0s0.195,0.512,0,0.707L34.371,69.336C34.273,69.434,34.146,69.482,34.018,69.482z"/><path fill="#1f212b" d="M42.5,66c-0.128,0-0.256-0.049-0.354-0.146c-0.195-0.195-0.195-0.512,0-0.707l27.5-27.5	c0.195-0.195,0.512-0.195,0.707,0s0.195,0.512,0,0.707l-27.5,27.5C42.756,65.951,42.628,66,42.5,66z"/><path fill="#1f212b" d="M28.48,63.981c-0.128,0-0.256-0.049-0.354-0.146c-0.195-0.195-0.195-0.512,0-0.707l33.5-33.5	c0.195-0.195,0.512-0.195,0.707,0s0.195,0.512,0,0.707l-33.5,33.5C28.736,63.932,28.608,63.981,28.48,63.981z"/><path fill="#1f212b" d="M39.5,69c-0.128,0-0.256-0.049-0.354-0.146c-0.195-0.195-0.195-0.512,0-0.707l1-1	c0.195-0.195,0.512-0.195,0.707,0s0.195,0.512,0,0.707l-1,1C39.756,68.951,39.628,69,39.5,69z"/><path fill="#1f212b" d="M64.5,39c-0.128,0-0.256-0.049-0.354-0.146c-0.195-0.195-0.195-0.512,0-0.707l3-3	c0.195-0.195,0.512-0.195,0.707,0s0.195,0.512,0,0.707l-3,3C64.756,38.951,64.628,39,64.5,39z"/><path fill="#1f212b" d="M75.5,38c-0.128,0-0.256-0.049-0.354-0.146l-13-13c-0.195-0.195-0.195-0.512,0-0.707	s0.512-0.195,0.707,0l13,13c0.195,0.195,0.195,0.512,0,0.707C75.756,37.951,75.628,38,75.5,38z"/><path fill="#1f212b" d="M74.5,32c-0.128,0-0.256-0.049-0.354-0.146l-9.5-9.5c-0.195-0.195-0.195-0.512,0-0.707	s0.512-0.195,0.707,0l9.5,9.5c0.195,0.195,0.195,0.512,0,0.707C74.756,31.951,74.628,32,74.5,32z"/><path fill="#1f212b" d="M78,35.5c-0.128,0-0.256-0.049-0.354-0.146l-1.5-1.5c-0.195-0.195-0.195-0.512,0-0.707	s0.512-0.195,0.707,0l1.5,1.5c0.195,0.195,0.195,0.512,0,0.707C78.256,35.451,78.128,35.5,78,35.5z"/></svg>