<?xml version="1.0" encoding="UTF-8"?>
<svg xmlns="http://www.w3.org/2000/svg" xmlns:xlink="http://www.w3.org/1999/xlink" width="30pt" height="30pt" viewBox="0 0 30 30" version="1.1">
<g id="surface181227">
<path style=" stroke:none;fill-rule:nonzero;fill:rgb(18.039216%,80%,44.313725%);fill-opacity:1;" d="M 7.800781 18.300781 L 17.851562 8.25 L 21.75 12.148438 L 11.699219 22.199219 Z M 7.800781 18.300781 "/>
<path style=" stroke:none;fill-rule:nonzero;fill:rgb(99.607843%,99.215686%,93.72549%);fill-opacity:1;" d="M 5.398438 24.300781 L 5.699219 24.601562 L 11.699219 22.199219 L 7.800781 18.300781 Z M 5.398438 24.300781 "/>
<path style=" stroke:none;fill-rule:nonzero;fill:rgb(12.156863%,12.941176%,16.862745%);fill-opacity:1;" d="M 6.257812 22.15625 L 5.398438 24.300781 L 5.699219 24.601562 L 7.84375 23.742188 Z M 6.257812 22.15625 "/>
<path style=" stroke:none;fill-rule:nonzero;fill:rgb(95.294118%,49.411765%,59.607843%);fill-opacity:1;" d="M 23.507812 6.492188 C 22.429688 5.417969 21.019531 5.078125 20.363281 5.738281 L 17.851562 8.25 L 21.75 12.148438 L 24.261719 9.636719 C 24.921875 8.980469 24.582031 7.570312 23.507812 6.492188 Z M 23.507812 6.492188 "/>
<path style=" stroke:none;fill-rule:nonzero;fill:rgb(47.843137%,56.862745%,78.823529%);fill-opacity:1;" d="M 17.851562 8.25 L 19.605469 6.492188 L 23.507812 10.394531 L 21.75 12.148438 Z M 17.851562 8.25 "/>
<path style=" stroke:none;fill-rule:nonzero;fill:rgb(12.156863%,12.941176%,16.862745%);fill-opacity:1;" d="M 5.699219 24.898438 C 5.621094 24.898438 5.546875 24.871094 5.488281 24.8125 L 5.1875 24.511719 C 5.101562 24.425781 5.078125 24.300781 5.121094 24.1875 L 7.519531 18.1875 C 7.535156 18.152344 7.558594 18.117188 7.589844 18.089844 L 20.148438 5.527344 C 20.542969 5.128906 21.148438 5.003906 21.847656 5.171875 C 22.496094 5.328125 23.160156 5.722656 23.71875 6.28125 C 24.277344 6.839844 24.671875 7.503906 24.828125 8.152344 C 24.996094 8.851562 24.871094 9.457031 24.476562 9.851562 L 24.210938 10.113281 L 11.910156 22.410156 C 11.882812 22.441406 11.847656 22.464844 11.8125 22.480469 L 5.8125 24.878906 C 5.773438 24.894531 5.738281 24.898438 5.699219 24.898438 Z M 5.753906 24.226562 L 5.773438 24.246094 L 11.53125 21.945312 L 24.050781 9.425781 C 24.292969 9.183594 24.363281 8.78125 24.246094 8.292969 C 24.113281 7.75 23.777344 7.1875 23.292969 6.707031 C 22.8125 6.222656 22.246094 5.886719 21.707031 5.753906 C 21.21875 5.636719 20.816406 5.707031 20.574219 5.949219 L 8.054688 18.46875 Z M 5.753906 24.226562 "/>
<path style=" stroke:none;fill-rule:nonzero;fill:rgb(12.156863%,12.941176%,16.862745%);fill-opacity:1;" d="M 17.636719 8.460938 L 18.0625 8.039062 L 21.960938 11.9375 L 21.539062 12.363281 Z M 17.636719 8.460938 "/>
<path style=" stroke:none;fill-rule:nonzero;fill:rgb(12.156863%,12.941176%,16.862745%);fill-opacity:1;" d="M 7.589844 18.511719 L 8.011719 18.089844 L 11.914062 21.988281 L 11.488281 22.414062 Z M 7.589844 18.511719 "/>
<path style=" stroke:none;fill-rule:nonzero;fill:rgb(12.156863%,12.941176%,16.862745%);fill-opacity:1;" d="M 6.195312 22.304688 L 6.40625 22.09375 L 7.925781 23.613281 L 7.710938 23.824219 Z M 6.195312 22.304688 "/>
<path style=" stroke:none;fill-rule:nonzero;fill:rgb(12.156863%,12.941176%,16.862745%);fill-opacity:1;" d="M 9.3125 19.953125 C 9.273438 19.953125 9.238281 19.9375 9.207031 19.910156 C 9.148438 19.851562 9.148438 19.753906 9.207031 19.695312 L 19.242188 9.660156 C 19.300781 9.601562 19.398438 9.601562 19.457031 9.660156 C 19.515625 9.71875 19.515625 9.8125 19.457031 9.871094 L 9.417969 19.910156 C 9.390625 19.9375 9.351562 19.953125 9.3125 19.953125 Z M 9.3125 19.953125 "/>
<path style=" stroke:none;fill-rule:nonzero;fill:rgb(12.156863%,12.941176%,16.862745%);fill-opacity:1;" d="M 10.207031 20.84375 C 10.167969 20.84375 10.128906 20.828125 10.097656 20.800781 C 10.039062 20.742188 10.039062 20.648438 10.097656 20.589844 L 18.644531 12.042969 C 18.703125 11.984375 18.796875 11.984375 18.855469 12.042969 C 18.914062 12.101562 18.914062 12.199219 18.855469 12.257812 L 10.3125 20.800781 C 10.28125 20.832031 10.242188 20.84375 10.207031 20.84375 Z M 10.207031 20.84375 "/>
<path style=" stroke:none;fill-rule:nonzero;fill:rgb(12.156863%,12.941176%,16.862745%);fill-opacity:1;" d="M 12.75 19.800781 C 12.710938 19.800781 12.671875 19.785156 12.644531 19.757812 C 12.585938 19.699219 12.585938 19.601562 12.644531 19.542969 L 20.894531 11.292969 C 20.953125 11.234375 21.046875 11.234375 21.105469 11.292969 C 21.164062 11.351562 21.164062 11.449219 21.105469 11.507812 L 12.855469 19.757812 C 12.828125 19.785156 12.789062 19.800781 12.75 19.800781 Z M 12.75 19.800781 "/>
<path style=" stroke:none;fill-rule:nonzero;fill:rgb(12.156863%,12.941176%,16.862745%);fill-opacity:1;" d="M 8.542969 19.195312 C 8.503906 19.195312 8.46875 19.179688 8.4375 19.152344 C 8.378906 19.09375 8.378906 18.996094 8.4375 18.9375 L 18.488281 8.886719 C 18.546875 8.828125 18.640625 8.828125 18.699219 8.886719 C 18.757812 8.945312 18.757812 9.042969 18.699219 9.101562 L 8.648438 19.152344 C 8.621094 19.179688 8.582031 19.195312 8.542969 19.195312 Z M 8.542969 19.195312 "/>
<path style=" stroke:none;fill-rule:nonzero;fill:rgb(12.156863%,12.941176%,16.862745%);fill-opacity:1;" d="M 11.851562 20.699219 C 11.8125 20.699219 11.773438 20.683594 11.742188 20.65625 C 11.683594 20.597656 11.683594 20.503906 11.742188 20.445312 L 12.042969 20.144531 C 12.101562 20.085938 12.199219 20.085938 12.257812 20.144531 C 12.3125 20.203125 12.3125 20.296875 12.257812 20.355469 L 11.957031 20.65625 C 11.925781 20.683594 11.886719 20.699219 11.851562 20.699219 Z M 11.851562 20.699219 "/>
<path style=" stroke:none;fill-rule:nonzero;fill:rgb(12.156863%,12.941176%,16.862745%);fill-opacity:1;" d="M 19.351562 11.699219 C 19.3125 11.699219 19.273438 11.683594 19.242188 11.65625 C 19.183594 11.597656 19.183594 11.503906 19.242188 11.445312 L 20.144531 10.542969 C 20.203125 10.484375 20.296875 10.484375 20.355469 10.542969 C 20.414062 10.601562 20.414062 10.699219 20.355469 10.757812 L 19.457031 11.65625 C 19.425781 11.683594 19.386719 11.699219 19.351562 11.699219 Z M 19.351562 11.699219 "/>
<path style=" stroke:none;fill-rule:nonzero;fill:rgb(12.156863%,12.941176%,16.862745%);fill-opacity:1;" d="M 22.648438 11.398438 C 22.613281 11.398438 22.574219 11.386719 22.542969 11.355469 L 18.644531 7.457031 C 18.585938 7.398438 18.585938 7.300781 18.644531 7.242188 C 18.703125 7.1875 18.796875 7.1875 18.855469 7.242188 L 22.757812 11.144531 C 22.8125 11.203125 22.8125 11.296875 22.757812 11.355469 C 22.726562 11.386719 22.6875 11.398438 22.648438 11.398438 Z M 22.648438 11.398438 "/>
<path style=" stroke:none;fill-rule:nonzero;fill:rgb(12.156863%,12.941176%,16.862745%);fill-opacity:1;" d="M 22.351562 9.601562 C 22.3125 9.601562 22.273438 9.585938 22.242188 9.554688 L 19.394531 6.707031 C 19.335938 6.648438 19.335938 6.550781 19.394531 6.492188 C 19.453125 6.4375 19.546875 6.4375 19.605469 6.492188 L 22.457031 9.34375 C 22.515625 9.402344 22.515625 9.496094 22.457031 9.554688 C 22.425781 9.585938 22.386719 9.601562 22.351562 9.601562 Z M 22.351562 9.601562 "/>
<path style=" stroke:none;fill-rule:nonzero;fill:rgb(12.156863%,12.941176%,16.862745%);fill-opacity:1;" d="M 23.398438 10.648438 C 23.363281 10.648438 23.324219 10.636719 23.292969 10.605469 L 22.84375 10.15625 C 22.785156 10.097656 22.785156 10.003906 22.84375 9.945312 C 22.902344 9.886719 22.996094 9.886719 23.054688 9.945312 L 23.507812 10.394531 C 23.5625 10.453125 23.5625 10.546875 23.507812 10.605469 C 23.476562 10.636719 23.4375 10.648438 23.398438 10.648438 Z M 23.398438 10.648438 "/>
</g>
</svg>
