<svg xmlns="http://www.w3.org/2000/svg" viewBox="0 0 64 64" width="20px" height="20px"><path fill="#72caaf" d="M25,52h4l-9,9l-9-9h4V24c0-1.105,0.895-2,2-2h22v10H25V52z"/><path fill="#72caaf" d="M39,12h-4l9-9l9,9h-4v28c0,1.105-0.895,2-2,2H25V32h14V12z"/><path fill="#5dbc9d" d="M44.5,38H29c-2.209,0-4,1.791-4,4v0h22c1.105,0,2-0.895,2-2V12h4l-9-9l-3,3l3.414,3.414 C44.789,9.789,45,10.298,45,10.828L45,37.5C45,37.776,44.776,38,44.5,38z"/><path fill="#97e0bb" d="M19.5,26H35c2.209,0,4-1.791,4-4v0H17c-1.105,0-2,0.895-2,2v28h-4l9,9l3-3l-3.414-3.414 C19.211,54.211,19,53.702,19,53.172L19,26.5C19,26.224,19.224,26,19.5,26z"/><path fill="none" stroke="#8d6c9f" stroke-linecap="round" stroke-linejoin="round" stroke-miterlimit="10" stroke-width="2" d="M39,25.016V12h-4l9-9l9,9h-4v28c0,1.105-0.895,2-2,2H25V32h14v-2.984"/><path fill="none" stroke="#8d6c9f" stroke-linejoin="round" stroke-miterlimit="10" stroke-width="2" d="M25,42v10h4l-9,9l-9-9h4V24 c0-1.105,0.895-2,2-2h22"/><path fill="#8d6c9f" d="M28 46v2c0 .552.448 1 1 1s1-.448 1-1v-2c0-.552-.448-1-1-1S28 45.448 28 46zM33 46v2c0 .552.448 1 1 1s1-.448 1-1v-2c0-.552-.448-1-1-1S33 45.448 33 46zM38 46v2c0 .552.448 1 1 1s1-.448 1-1v-2c0-.552-.448-1-1-1S38 45.448 38 46zM43 46v2c0 .552.448 1 1 1 .552 0 1-.448 1-1v-2c0-.552-.448-1-1-1C43.448 45 43 45.448 43 46zM48 46v2c0 .552.448 1 1 1 .552 0 1-.448 1-1v-2c0-.552-.448-1-1-1C48.448 45 48 45.448 48 46zM14 16v2c0 .552.448 1 1 1s1-.448 1-1v-2c0-.552-.448-1-1-1S14 15.448 14 16zM19 16v2c0 .552.448 1 1 1s1-.448 1-1v-2c0-.552-.448-1-1-1S19 15.448 19 16zM24 16v2c0 .552.448 1 1 1s1-.448 1-1v-2c0-.552-.448-1-1-1S24 15.448 24 16zM29 16v2c0 .552.448 1 1 1 .552 0 1-.448 1-1v-2c0-.552-.448-1-1-1C29.448 15 29 15.448 29 16zM34 16v2c0 .552.448 1 1 1 .552 0 1-.448 1-1v-2c0-.552-.448-1-1-1C34.448 15 34 15.448 34 16z"/></svg>